<?xml version="1.0" encoding="UTF-8"?>
<!DOCTYPE svg PUBLIC "-//W3C//DTD SVG 1.1//EN" "http://www.w3.org/Graphics/SVG/1.1/DTD/svg11.dtd">
<svg xmlns="http://www.w3.org/2000/svg" version="1.1" width="192px" height="192px" style="shape-rendering:geometricPrecision; text-rendering:geometricPrecision; image-rendering:optimizeQuality; fill-rule:evenodd; clip-rule:evenodd" xmlns:xlink="http://www.w3.org/1999/xlink">
<g><path style="opacity:1" fill="#fefefe" d="M -0.5,-0.5 C 53.5,-0.5 107.5,-0.5 161.5,-0.5C 127.646,10.3481 103.979,32.3481 90.5,65.5C 70.1723,67.5812 50.839,73.0812 32.5,82C 13.4726,95.9042 5.13922,114.738 7.5,138.5C 4.03934,139.551 1.37267,141.551 -0.5,144.5C -0.5,96.1667 -0.5,47.8333 -0.5,-0.5 Z"/></g>
<g><path style="opacity:1" fill="#ed1f24" d="M 161.5,-0.5 C 171.5,-0.5 181.5,-0.5 191.5,-0.5C 191.5,5.16667 191.5,10.8333 191.5,16.5C 158.585,16.7023 133.085,30.369 115,57.5C 112.928,60.9712 111.428,64.6379 110.5,68.5C 137.474,67.0251 164.474,66.0251 191.5,65.5C 191.5,68.1667 191.5,70.8333 191.5,73.5C 149.746,74.1044 108.079,76.271 66.5,80C 57.1966,81.6568 48.1966,84.3235 39.5,88C 33.3676,91.9664 28.0343,96.7997 23.5,102.5C 23.6667,102.833 23.8333,103.167 24,103.5C 35.6975,96.0298 48.5309,91.8631 62.5,91C 105.504,89.6874 148.504,88.1874 191.5,86.5C 191.5,102.5 191.5,118.5 191.5,134.5C 122.167,135.167 122.167,135.833 191.5,136.5C 191.5,137.167 191.5,137.833 191.5,138.5C 172.488,138.833 153.488,138.5 134.5,137.5C 124.73,114.75 107.397,103.083 82.5,102.5C 57.2721,102.596 40.9388,114.596 33.5,138.5C 24.8333,138.5 16.1667,138.5 7.5,138.5C 5.13922,114.738 13.4726,95.9042 32.5,82C 50.839,73.0812 70.1723,67.5812 90.5,65.5C 103.979,32.3481 127.646,10.3481 161.5,-0.5 Z"/></g>
<g><path style="opacity:1" fill="#fefefe" d="M 191.5,16.5 C 191.5,32.8333 191.5,49.1667 191.5,65.5C 164.474,66.0251 137.474,67.0251 110.5,68.5C 111.428,64.6379 112.928,60.9712 115,57.5C 133.085,30.369 158.585,16.7023 191.5,16.5 Z"/></g>
<g><path style="opacity:1" fill="#ef3b34" d="M 191.5,73.5 C 191.5,77.8333 191.5,82.1667 191.5,86.5C 148.504,88.1874 105.504,89.6874 62.5,91C 48.5309,91.8631 35.6975,96.0298 24,103.5C 23.8333,103.167 23.6667,102.833 23.5,102.5C 28.0343,96.7997 33.3676,91.9664 39.5,88C 48.1966,84.3235 57.1966,81.6568 66.5,80C 108.079,76.271 149.746,74.1044 191.5,73.5 Z"/></g>
<g><path style="opacity:1" fill="#fcbf0f" d="M 191.5,138.5 C 191.5,144.5 191.5,150.5 191.5,156.5C 168.167,156.5 144.833,156.5 121.5,156.5C 120.766,131.097 107.766,116.764 82.5,113.5C 57.1391,116.509 43.8058,130.842 42.5,156.5C 29.8289,156.667 17.1623,156.5 4.5,156C 2.31305,154.975 0.646381,153.475 -0.5,151.5C -0.5,149.167 -0.5,146.833 -0.5,144.5C 1.37267,141.551 4.03934,139.551 7.5,138.5C 16.1667,138.5 24.8333,138.5 33.5,138.5C 40.9388,114.596 57.2721,102.596 82.5,102.5C 107.397,103.083 124.73,114.75 134.5,137.5C 153.488,138.5 172.488,138.833 191.5,138.5 Z"/></g>
<g><path style="opacity:1" fill="#444549" d="M 121.5,156.5 C 120.077,172.364 112.41,184.03 98.5,191.5C 87.5,191.5 76.5,191.5 65.5,191.5C 52.0889,183.695 44.4222,172.028 42.5,156.5C 43.8058,130.842 57.1391,116.509 82.5,113.5C 107.766,116.764 120.766,131.097 121.5,156.5 Z"/></g>
<g><path style="opacity:1" fill="#f0f8fb" d="M 75.5,128.5 C 97.9673,127.467 108.467,138.134 107,160.5C 101.532,176.149 90.6988,182.316 74.5,179C 59.101,171.697 53.9343,159.864 59,143.5C 62.8225,136.504 68.3225,131.504 75.5,128.5 Z"/></g>
<g><path style="opacity:1" fill="#f25c22" d="M 191.5,134.5 C 191.5,135.167 191.5,135.833 191.5,136.5C 122.167,135.833 122.167,135.167 191.5,134.5 Z"/></g>
<g><path style="opacity:1" fill="#444549" d="M 77.5,139.5 C 89.0046,137.746 95.6712,142.579 97.5,154C 94.8551,167.485 87.1884,171.818 74.5,167C 67.6362,161.958 65.8028,155.458 69,147.5C 71.0738,143.923 73.9072,141.256 77.5,139.5 Z"/></g>
<g><path style="opacity:1" fill="#fefefc" d="M -0.5,151.5 C 0.646381,153.475 2.31305,154.975 4.5,156C 17.1623,156.5 29.8289,156.667 42.5,156.5C 44.4222,172.028 52.0889,183.695 65.5,191.5C 43.5,191.5 21.5,191.5 -0.5,191.5C -0.5,178.167 -0.5,164.833 -0.5,151.5 Z"/></g>
<g><path style="opacity:1" fill="#fefefe" d="M 121.5,156.5 C 144.833,156.5 168.167,156.5 191.5,156.5C 191.5,168.167 191.5,179.833 191.5,191.5C 160.5,191.5 129.5,191.5 98.5,191.5C 112.41,184.03 120.077,172.364 121.5,156.5 Z"/></g>
</svg>
